<svg width="16.000000" height="16.000000" viewBox="0 0 16 16" fill="none" xmlns="http://www.w3.org/2000/svg" xmlns:xlink="http://www.w3.org/1999/xlink">
	<desc>
			Created with Pixso.
	</desc>
	<defs/>
	<path id="Vector" d="M8 1.49C11.59 1.49 14.58 4.08 15.21 7.49C14.58 10.91 11.59 13.49 8 13.49C4.4 13.49 1.41 10.91 0.78 7.49C1.41 4.08 4.4 1.49 8 1.49ZM8 12.16C9.35 12.16 10.67 11.7 11.74 10.85C12.8 10 13.54 8.82 13.85 7.49C13.54 6.17 12.8 4.99 11.74 4.14C10.67 3.29 9.35 2.83 8 2.83C6.64 2.83 5.32 3.29 4.25 4.14C3.19 4.99 2.45 6.17 2.14 7.49C2.45 8.82 3.19 10 4.25 10.85C5.32 11.7 6.64 12.16 8 12.16ZM8 10.49C7.2 10.49 6.44 10.18 5.87 9.62C5.31 9.05 5 8.29 5 7.49C5 6.7 5.31 5.94 5.87 5.37C6.44 4.81 7.2 4.49 8 4.49C8.79 4.49 9.55 4.81 10.12 5.37C10.68 5.94 11 6.7 11 7.49C11 8.29 10.68 9.05 10.12 9.62C9.55 10.18 8.79 10.49 8 10.49ZM8 9.16C8.44 9.16 8.86 8.99 9.17 8.67C9.49 8.36 9.66 7.94 9.66 7.49C9.66 7.05 9.49 6.63 9.17 6.32C8.86 6 8.44 5.83 8 5.83C7.55 5.83 7.13 6 6.82 6.32C6.5 6.63 6.33 7.05 6.33 7.49C6.33 7.94 6.5 8.36 6.82 8.67C7.13 8.99 7.55 9.16 8 9.16Z" fill="#FFFFFF" fill-opacity="1.000000" fill-rule="nonzero"/>
</svg>
