<svg width="54.000000" height="43.000000" viewBox="0 0 54 43" fill="none" xmlns="http://www.w3.org/2000/svg" xmlns:xlink="http://www.w3.org/1999/xlink">
	<desc>
			Created with Pixso.
	</desc>
	<defs/>
	<path id="Vector" d="M38.6 23.25L39.91 20.93L40.8 19.27L37.16 19.27L35.87 21.64C35.59 22.15 34.95 22.32 34.45 22.03L23.36 15.64L3.9 23.42C3.58 23.54 3.23 23.38 3.11 23.06C2.99 22.74 3.14 22.39 3.44 22.26C3.44 22.26 3.45 22.25 3.45 22.25L5.64 21.31L4.54 18.58L2.25 19.57C1.36 19.94 0.66 20.65 0.28 21.57C-0.1 22.48 -0.1 23.49 0.27 24.41C0.63 25.32 1.32 26.03 2.2 26.42C2.66 26.62 3.14 26.72 3.62 26.72C4.07 26.72 4.52 26.63 4.95 26.46L23.12 19.2L31.03 23.76L29.48 26.33L29.1 26.09C29.04 23.32 27.57 22.54 26.89 22.33C26.04 22.06 25.09 22.21 24.07 22.77C23.25 23.22 22.35 23.97 21.4 24.99C19.58 26.95 17.59 29.88 15.46 33.72L13.42 31.23C13.69 30.97 13.93 30.69 14.13 30.38C15.05 28.94 15.12 27.15 14.35 25.05L11.4 26.18C11.8 27.27 11.83 28.08 11.5 28.61C11.19 29.09 10.19 29.93 7.02 30.1L6.11 30.15L4.06 34.35L7.57 34.35L8.11 33.25C9.03 33.16 9.86 33 10.59 32.79L11.87 34.35L18.74 34.35C19.52 32.99 20.28 31.76 21.01 30.67L22.99 31.93L21.59 34.35L25.25 34.35L27.26 30.85L22.92 28.09C23.06 27.92 23.19 27.76 23.33 27.61C24.71 26.03 25.53 25.59 25.87 25.47C25.93 25.68 26 26.09 25.93 26.82L25.84 27.81L30.5 30.78L33.85 25.24C35.65 25.75 37.63 24.98 38.61 23.25L38.6 23.25Z" fill="#FFFFFF" fill-opacity="1.000000" fill-rule="nonzero"/>
	<path id="Vector" d="M54 8.91L50.94 3.79L53.84 0L51.13 0L47.25 5.35L47.25 0L39.13 0C39.11 0 39.09 0 39.08 0C38.23 0 37.5 0.1 36.88 0.31C36.26 0.53 35.77 0.84 35.42 1.25C35.08 1.67 34.9 2.18 34.9 2.79C34.9 3.54 35.17 4.14 35.71 4.58C36.24 5.03 37.11 5.29 38.31 5.39L39.77 5.51C40.26 5.55 40.58 5.62 40.74 5.73C40.9 5.84 40.98 5.99 40.98 6.16C40.98 6.41 40.84 6.6 40.56 6.72C40.27 6.84 39.88 6.9 39.36 6.9C38.99 6.9 38.67 6.86 38.4 6.78C38.13 6.7 37.91 6.59 37.75 6.44C37.59 6.29 37.5 6.12 37.47 5.92L34.85 5.92C34.86 6.51 35.06 7.03 35.43 7.48C35.81 7.94 36.33 8.29 37 8.54C37.66 8.79 38.44 8.91 39.32 8.91C40.2 8.91 40.93 8.79 41.57 8.53C42.21 8.28 42.71 7.92 43.06 7.46C43.42 7 43.59 6.47 43.59 5.86C43.59 5.36 43.48 4.95 43.26 4.62C43.04 4.29 42.68 4.03 42.19 3.83C41.7 3.64 41.05 3.51 40.25 3.45L38.64 3.32C38.21 3.28 37.92 3.21 37.76 3.1C37.6 3 37.52 2.86 37.52 2.69C37.52 2.46 37.66 2.29 37.93 2.18C38.2 2.07 38.56 2.01 39.02 2.01L44.68 2.01L44.68 8.91L47.02 8.91L49.33 5.89L51.06 8.91L53.99 8.91L54 8.91Z" fill="#FFFFFF" fill-opacity="1.000000" fill-rule="nonzero"/>
	<path id="Vector" d="M1.26 38.65L0.12 38.65L0.12 38.1L3.04 38.1L3.04 38.65L1.9 38.65L1.9 41.62L1.26 41.62L1.26 38.65Z" fill="#FFFFFF" fill-opacity="1.000000" fill-rule="nonzero"/>
	<path id="Vector" d="M5.65 40.48L3.59 40.48C3.63 40.68 3.72 40.84 3.88 40.95C4.03 41.07 4.22 41.13 4.45 41.13C4.73 41.13 4.97 41.03 5.16 40.83L5.49 41.22C5.37 41.37 5.22 41.48 5.04 41.55C4.86 41.62 4.66 41.66 4.43 41.66C4.14 41.66 3.89 41.6 3.67 41.48C3.45 41.37 3.28 41.2 3.16 40.99C3.04 40.78 2.98 40.54 2.98 40.28C2.98 40.01 3.04 39.78 3.15 39.57C3.27 39.36 3.43 39.2 3.64 39.08C3.84 38.96 4.08 38.9 4.34 38.9C4.59 38.9 4.82 38.96 5.02 39.08C5.22 39.19 5.38 39.36 5.49 39.57C5.61 39.78 5.66 40.02 5.66 40.3C5.66 40.34 5.66 40.4 5.65 40.48L5.65 40.48ZM3.84 39.59C3.7 39.71 3.62 39.86 3.59 40.06L5.08 40.06C5.05 39.87 4.97 39.71 4.84 39.59C4.7 39.47 4.54 39.41 4.34 39.41C4.14 39.41 3.97 39.47 3.84 39.59L3.84 39.59Z" fill="#FFFFFF" fill-opacity="1.000000" fill-rule="nonzero"/>
	<path id="Vector" d="M6.73 41.48C6.51 41.36 6.34 41.2 6.22 40.99C6.1 40.78 6.04 40.54 6.04 40.28C6.04 40.01 6.1 39.78 6.22 39.57C6.34 39.36 6.51 39.2 6.72 39.08C6.94 38.96 7.18 38.9 7.46 38.9C7.72 38.9 7.94 38.96 8.14 39.06C8.34 39.17 8.48 39.33 8.58 39.53L8.11 39.81C8.03 39.69 7.94 39.59 7.82 39.53C7.71 39.47 7.59 39.44 7.45 39.44C7.22 39.44 7.03 39.51 6.88 39.66C6.73 39.82 6.66 40.02 6.66 40.28C6.66 40.53 6.73 40.74 6.88 40.89C7.03 41.04 7.22 41.12 7.45 41.12C7.59 41.12 7.71 41.09 7.82 41.03C7.94 40.96 8.03 40.87 8.11 40.75L8.58 41.03C8.48 41.23 8.33 41.38 8.13 41.49C7.94 41.6 7.71 41.66 7.46 41.66C7.19 41.66 6.94 41.6 6.73 41.48L6.73 41.48Z" fill="#FFFFFF" fill-opacity="1.000000" fill-rule="nonzero"/>
	<path id="Vector" d="M11.37 39.2C11.57 39.4 11.67 39.69 11.67 40.08L11.67 41.62L11.06 41.62L11.06 40.16C11.06 39.93 11.01 39.75 10.9 39.63C10.79 39.51 10.63 39.45 10.43 39.45C10.21 39.45 10.03 39.52 9.9 39.66C9.77 39.8 9.7 40 9.7 40.26L9.7 41.62L9.09 41.62L9.09 37.89L9.7 37.89L9.7 39.25C9.8 39.13 9.93 39.05 10.08 38.99C10.23 38.93 10.39 38.9 10.58 38.9C10.91 38.9 11.18 39 11.37 39.2L11.37 39.2Z" fill="#FFFFFF" fill-opacity="1.000000" fill-rule="nonzero"/>
	<path id="Vector" d="M14.74 39.2C14.94 39.4 15.04 39.69 15.04 40.08L15.04 41.62L14.43 41.62L14.43 40.16C14.43 39.93 14.37 39.75 14.27 39.63C14.16 39.51 14 39.45 13.8 39.45C13.58 39.45 13.4 39.52 13.27 39.66C13.14 39.8 13.07 40 13.07 40.26L13.07 41.62L12.46 41.62L12.46 38.93L13.04 38.93L13.04 39.28C13.14 39.16 13.27 39.06 13.43 39C13.58 38.93 13.75 38.9 13.95 38.9C14.28 38.9 14.54 39 14.74 39.2L14.74 39.2Z" fill="#FFFFFF" fill-opacity="1.000000" fill-rule="nonzero"/>
	<path id="Vector" d="M16.31 41.48C16.1 41.36 15.93 41.2 15.81 40.99C15.69 40.78 15.63 40.54 15.63 40.28C15.63 40.01 15.69 39.78 15.81 39.57C15.93 39.36 16.1 39.2 16.31 39.08C16.52 38.96 16.76 38.9 17.03 38.9C17.29 38.9 17.54 38.96 17.75 39.08C17.96 39.2 18.13 39.36 18.25 39.57C18.37 39.78 18.43 40.01 18.43 40.28C18.43 40.54 18.37 40.78 18.25 40.99C18.13 41.2 17.96 41.36 17.75 41.48C17.54 41.6 17.3 41.66 17.03 41.66C16.76 41.66 16.52 41.6 16.31 41.48ZM17.59 40.89C17.74 40.73 17.81 40.53 17.81 40.28C17.81 40.03 17.74 39.82 17.59 39.67C17.44 39.51 17.25 39.44 17.03 39.44C16.8 39.44 16.62 39.52 16.47 39.67C16.32 39.82 16.25 40.03 16.25 40.28C16.25 40.53 16.32 40.73 16.47 40.89C16.62 41.04 16.8 41.12 17.03 41.12C17.26 41.12 17.44 41.04 17.59 40.89Z" fill="#FFFFFF" fill-opacity="1.000000" fill-rule="nonzero"/>
	<path id="Vector" d="M19.02 37.89L19.64 37.89L19.64 41.62L19.02 41.62L19.02 37.89Z" fill="#FFFFFF" fill-opacity="1.000000" fill-rule="nonzero"/>
	<path id="Vector" d="M20.9 41.48C20.69 41.36 20.52 41.2 20.4 40.99C20.29 40.78 20.23 40.54 20.23 40.28C20.23 40.01 20.29 39.78 20.4 39.57C20.52 39.36 20.69 39.2 20.9 39.08C21.12 38.96 21.36 38.9 21.62 38.9C21.89 38.9 22.13 38.96 22.35 39.08C22.56 39.2 22.72 39.36 22.84 39.57C22.96 39.78 23.02 40.01 23.02 40.28C23.02 40.54 22.96 40.78 22.84 40.99C22.72 41.2 22.56 41.36 22.35 41.48C22.13 41.6 21.89 41.66 21.62 41.66C21.35 41.66 21.12 41.6 20.9 41.48ZM22.18 40.89C22.33 40.73 22.4 40.53 22.4 40.28C22.4 40.03 22.33 39.82 22.18 39.67C22.04 39.51 21.85 39.44 21.62 39.44C21.4 39.44 21.21 39.52 21.06 39.67C20.92 39.82 20.84 40.03 20.84 40.28C20.84 40.53 20.92 40.73 21.06 40.89C21.21 41.04 21.39 41.12 21.62 41.12C21.85 41.12 22.03 41.04 22.18 40.89Z" fill="#FFFFFF" fill-opacity="1.000000" fill-rule="nonzero"/>
	<path id="Vector" d="M26.22 38.93L26.22 41.22C26.22 42.16 25.75 42.64 24.8 42.64C24.55 42.64 24.31 42.6 24.09 42.54C23.86 42.47 23.67 42.38 23.52 42.25L23.8 41.78C23.92 41.88 24.06 41.96 24.24 42.02C24.41 42.07 24.59 42.1 24.77 42.1C25.06 42.1 25.27 42.04 25.4 41.9C25.54 41.77 25.61 41.56 25.61 41.29L25.61 41.15C25.5 41.26 25.37 41.35 25.22 41.41C25.07 41.47 24.91 41.51 24.72 41.51C24.48 41.51 24.25 41.45 24.05 41.34C23.85 41.23 23.69 41.08 23.57 40.88C23.45 40.68 23.4 40.46 23.4 40.2C23.4 39.94 23.45 39.72 23.57 39.52C23.69 39.33 23.85 39.17 24.05 39.07C24.25 38.96 24.48 38.91 24.72 38.91C24.91 38.91 25.09 38.94 25.24 39C25.4 39.06 25.53 39.16 25.63 39.29L25.63 38.94L26.22 38.94L26.22 38.93ZM25.39 40.76C25.54 40.61 25.62 40.43 25.62 40.2C25.62 39.97 25.54 39.79 25.39 39.65C25.24 39.51 25.05 39.44 24.82 39.44C24.59 39.44 24.39 39.51 24.24 39.65C24.09 39.79 24.02 39.97 24.02 40.2C24.02 40.42 24.09 40.61 24.24 40.76C24.39 40.9 24.58 40.97 24.82 40.97C25.05 40.97 25.24 40.9 25.39 40.76Z" fill="#FFFFFF" fill-opacity="1.000000" fill-rule="nonzero"/>
	<path id="Vector" d="M29.49 38.93L28.26 41.84C28.14 42.13 28 42.34 27.84 42.46C27.67 42.58 27.48 42.64 27.24 42.64C27.11 42.64 26.98 42.62 26.86 42.57C26.73 42.53 26.62 42.47 26.54 42.39L26.79 41.93C26.85 41.98 26.91 42.03 26.99 42.06C27.07 42.1 27.16 42.11 27.24 42.11C27.35 42.11 27.44 42.09 27.51 42.03C27.58 41.97 27.64 41.88 27.7 41.74L27.74 41.64L26.6 38.94L27.24 38.94L28.06 40.92L28.9 38.94L29.49 38.94L29.49 38.93Z" fill="#FFFFFF" fill-opacity="1.000000" fill-rule="nonzero"/>
	<path id="Vector" d="M33.87 41.68L33.43 41.25C33.11 41.53 32.73 41.67 32.28 41.67C32.04 41.67 31.83 41.63 31.64 41.55C31.45 41.47 31.3 41.36 31.19 41.22C31.08 41.08 31.03 40.91 31.03 40.73C31.03 40.51 31.09 40.32 31.21 40.16C31.34 39.99 31.54 39.83 31.82 39.66C31.68 39.52 31.59 39.39 31.53 39.27C31.47 39.15 31.44 39.02 31.44 38.89C31.44 38.64 31.53 38.44 31.71 38.29C31.89 38.13 32.13 38.06 32.44 38.06C32.72 38.06 32.94 38.13 33.11 38.27C33.27 38.41 33.36 38.59 33.36 38.83C33.36 39.01 33.3 39.18 33.19 39.32C33.08 39.46 32.9 39.6 32.65 39.74L33.4 40.47C33.48 40.31 33.54 40.11 33.59 39.88L34.09 40.04C34.02 40.35 33.92 40.62 33.78 40.85L34.21 41.27L33.87 41.68L33.87 41.68ZM33.07 40.89L32.16 40C31.96 40.11 31.83 40.22 31.74 40.32C31.66 40.42 31.62 40.54 31.62 40.67C31.62 40.82 31.69 40.93 31.82 41.02C31.94 41.11 32.11 41.16 32.32 41.16C32.61 41.16 32.86 41.07 33.07 40.89ZM32.12 38.61C32.04 38.68 32 38.77 32 38.88C32 38.96 32.02 39.04 32.06 39.11C32.11 39.18 32.19 39.28 32.31 39.4C32.51 39.29 32.64 39.2 32.72 39.11C32.8 39.03 32.83 38.94 32.83 38.84C32.83 38.74 32.8 38.66 32.73 38.6C32.66 38.54 32.56 38.51 32.44 38.51C32.3 38.51 32.2 38.54 32.12 38.61Z" fill="#FFFFFF" fill-opacity="1.000000" fill-rule="nonzero"/>
	<path id="Vector" d="M39.75 41.98C39.63 42.11 39.5 42.22 39.35 42.29C39.2 42.36 39.03 42.4 38.85 42.4C38.61 42.4 38.4 42.34 38.2 42.23C38 42.12 37.78 41.93 37.53 41.66C37.21 41.64 36.92 41.54 36.67 41.38C36.42 41.22 36.22 41 36.08 40.74C35.94 40.48 35.87 40.18 35.87 39.86C35.87 39.52 35.95 39.21 36.11 38.93C36.27 38.66 36.49 38.44 36.77 38.28C37.05 38.13 37.37 38.05 37.72 38.05C38.07 38.05 38.39 38.13 38.67 38.28C38.95 38.44 39.17 38.65 39.33 38.93C39.49 39.21 39.58 39.52 39.58 39.86C39.58 40.14 39.52 40.4 39.41 40.64C39.3 40.87 39.15 41.07 38.96 41.24C38.77 41.41 38.54 41.53 38.29 41.6C38.38 41.7 38.48 41.78 38.57 41.83C38.66 41.87 38.76 41.9 38.86 41.9C39.09 41.9 39.29 41.8 39.45 41.62L39.75 41.98L39.75 41.98ZM36.67 40.5C36.78 40.69 36.92 40.84 37.1 40.94C37.29 41.05 37.49 41.1 37.72 41.1C37.95 41.1 38.16 41.05 38.34 40.94C38.53 40.84 38.67 40.69 38.77 40.5C38.88 40.31 38.93 40.1 38.93 39.86C38.93 39.63 38.88 39.41 38.77 39.22C38.67 39.03 38.53 38.89 38.34 38.78C38.16 38.68 37.95 38.62 37.72 38.62C37.49 38.62 37.29 38.68 37.1 38.78C36.92 38.89 36.77 39.04 36.67 39.22C36.56 39.41 36.51 39.63 36.51 39.86C36.51 40.1 36.57 40.31 36.67 40.5Z" fill="#FFFFFF" fill-opacity="1.000000" fill-rule="nonzero"/>
	<path id="Vector" d="M42.74 38.93L42.74 41.62L42.15 41.62L42.15 41.28C42.06 41.4 41.93 41.5 41.79 41.56C41.64 41.63 41.48 41.66 41.31 41.66C40.96 41.66 40.68 41.56 40.48 41.36C40.28 41.16 40.18 40.86 40.18 40.47L40.18 38.93L40.79 38.93L40.79 40.38C40.79 40.63 40.85 40.81 40.95 40.93C41.06 41.05 41.21 41.1 41.41 41.1C41.63 41.1 41.8 41.04 41.93 40.9C42.06 40.76 42.12 40.56 42.12 40.29L42.12 38.93L42.74 38.93L42.74 38.93Z" fill="#FFFFFF" fill-opacity="1.000000" fill-rule="nonzero"/>
	<path id="Vector" d="M45.44 39.19C45.64 39.38 45.74 39.66 45.74 40.05L45.74 41.62L45.16 41.62L45.16 41.3C45.09 41.41 44.98 41.5 44.84 41.57C44.7 41.63 44.53 41.66 44.34 41.66C44.14 41.66 43.97 41.63 43.82 41.56C43.67 41.49 43.56 41.39 43.48 41.27C43.4 41.15 43.36 41.01 43.36 40.85C43.36 40.61 43.45 40.42 43.62 40.27C43.8 40.12 44.07 40.05 44.45 40.05L45.13 40.05L45.13 40.01C45.13 39.82 45.07 39.68 44.96 39.58C44.85 39.48 44.69 39.43 44.47 39.43C44.33 39.43 44.18 39.45 44.04 39.5C43.9 39.54 43.78 39.61 43.68 39.69L43.44 39.24C43.57 39.13 43.74 39.05 43.93 38.99C44.13 38.93 44.33 38.9 44.55 38.9C44.93 38.9 45.23 39 45.44 39.19L45.44 39.19ZM44.88 41.09C45 41.02 45.08 40.92 45.13 40.78L45.13 40.47L44.49 40.47C44.14 40.47 43.96 40.59 43.96 40.83C43.96 40.94 44.01 41.03 44.1 41.1C44.19 41.17 44.31 41.2 44.47 41.2C44.62 41.2 44.76 41.16 44.88 41.09Z" fill="#FFFFFF" fill-opacity="1.000000" fill-rule="nonzero"/>
	<path id="Vector" d="M46.53 37.89L47.15 37.89L47.15 41.62L46.53 41.62L46.53 37.89Z" fill="#FFFFFF" fill-opacity="1.000000" fill-rule="nonzero"/>
	<path id="Vector" d="M47.98 38.38C47.91 38.31 47.87 38.22 47.87 38.11C47.87 38 47.91 37.92 47.98 37.84C48.06 37.77 48.15 37.73 48.26 37.73C48.37 37.73 48.47 37.77 48.54 37.84C48.62 37.91 48.65 37.99 48.65 38.1C48.65 38.21 48.62 38.3 48.54 38.38C48.47 38.45 48.38 38.49 48.26 38.49C48.15 38.49 48.06 38.46 47.98 38.38L47.98 38.38ZM47.95 38.93L48.57 38.93L48.57 41.62L47.95 41.62L47.95 38.93Z" fill="#FFFFFF" fill-opacity="1.000000" fill-rule="nonzero"/>
	<path id="Vector" d="M50.95 41.48C50.88 41.54 50.79 41.58 50.69 41.61C50.59 41.64 50.48 41.66 50.36 41.66C50.07 41.66 49.85 41.58 49.69 41.43C49.54 41.27 49.46 41.05 49.46 40.75L49.46 39.46L49.02 39.46L49.02 38.95L49.46 38.95L49.46 38.34L50.07 38.34L50.07 38.95L50.78 38.95L50.78 39.46L50.07 39.46L50.07 40.74C50.07 40.87 50.1 40.97 50.16 41.04C50.23 41.11 50.32 41.14 50.43 41.14C50.57 41.14 50.69 41.1 50.78 41.03L50.95 41.48L50.95 41.48Z" fill="#FFFFFF" fill-opacity="1.000000" fill-rule="nonzero"/>
	<path id="Vector" d="M53.87 38.93L52.64 41.84C52.52 42.13 52.38 42.34 52.22 42.46C52.06 42.58 51.86 42.64 51.63 42.64C51.49 42.64 51.36 42.62 51.24 42.57C51.11 42.53 51 42.47 50.92 42.39L51.17 41.93C51.23 41.98 51.3 42.03 51.38 42.06C51.46 42.1 51.54 42.11 51.62 42.11C51.73 42.11 51.82 42.09 51.89 42.03C51.96 41.97 52.02 41.88 52.08 41.74L52.13 41.64L50.98 38.94L51.62 38.94L52.45 40.92L53.28 38.94L53.87 38.94L53.87 38.93Z" fill="#FFFFFF" fill-opacity="1.000000" fill-rule="nonzero"/>
</svg>
