<svg width="32.000000" height="32.000000" viewBox="0 0 32 32" fill="none" xmlns="http://www.w3.org/2000/svg" xmlns:xlink="http://www.w3.org/1999/xlink">
	<desc>
			Created with Pixso.
	</desc>
	<defs/>
	<path id="Subtract" d="M16 -0.999512C7.16345 -0.999512 0 6.16406 0 15.0005C0 23.8369 7.16345 31.0005 16 31.0005C24.8365 31.0005 32 23.8369 32 15.0005C32 6.16406 24.8365 -0.999512 16 -0.999512ZM15.837 7.00049L12 7.00049L12 23.0005L15.9576 23.0005C17.2299 23.0005 18.2277 22.8159 18.9509 22.4473C19.6875 22.0654 20.2098 21.4927 20.5178 20.729C20.8392 19.9521 21 18.9839 21 17.8252L21 11.978C21 10.8457 20.8392 9.91064 20.5178 9.17334C20.2098 8.43604 19.6808 7.88916 18.9308 7.53369Q17.8259 7.00049 15.837 7.00049ZM15.8772 20.9658L14.9733 20.9658L14.9733 9.07471L15.837 9.07471C16.4933 9.07471 16.9688 9.1665 17.2634 9.35107C17.558 9.53564 17.7522 9.8252 17.8459 10.2202Q17.9866 10.813 17.9866 11.7808L17.9866 17.9043C17.9866 18.5625 17.9531 19.1221 17.8861 19.583C17.8192 20.0308 17.6384 20.3735 17.3438 20.6104C17.0491 20.8472 16.5603 20.9658 15.8772 20.9658Z" clip-rule="evenodd" fill="#FFFFFF" fill-opacity="1.000000" fill-rule="evenodd"/>
</svg>
