<svg width="32.000000" height="32.000000" viewBox="0 0 32 32" fill="none" xmlns="http://www.w3.org/2000/svg" xmlns:xlink="http://www.w3.org/1999/xlink">
	<desc>
			Created with Pixso.
	</desc>
	<defs/>
	<path id="Subtract" d="M16 -0.999512C7.16345 -0.999512 0 6.16406 0 15.0005C0 23.8369 7.16345 31.0005 16 31.0005C24.8365 31.0005 32 23.8369 32 15.0005C32 6.16406 24.8365 -0.999512 16 -0.999512ZM9.1543 8.15479C10.3314 7.01172 12.6172 7.00049 15.9143 7.00049C15.8057 10.5435 15.7142 12.1606 14.4572 13.4575C13.16 14.7148 11.5428 14.8003 8 14.9146C8 11.7207 8.01147 9.33203 9.1543 8.15479ZM16.0857 7.00049C16.1943 10.5435 16.2858 12.1606 17.5428 13.4575C18.84 14.7148 20.4572 14.8003 24 14.9146C24 11.7207 23.9885 9.33203 22.8457 8.15479C21.6686 7.01172 19.3885 7.00049 16.0857 7.00049ZM9.1543 21.8462C8.01147 20.6689 8 18.2803 8 15.0864C11.5428 15.1948 13.16 15.2861 14.4572 16.5435C15.7142 17.8403 15.8 19.4575 15.9143 23.0005C12.6115 23.0005 10.3314 22.9893 9.1543 21.8462ZM16.0857 23.0005C16.1943 19.4575 16.2858 17.8403 17.5428 16.5435C18.84 15.2861 20.4572 15.2007 24 15.0864C24 18.2803 23.9885 20.6689 22.8457 21.8462C21.6686 22.9893 19.3885 23.0005 16.0857 23.0005Z" clip-rule="evenodd" fill="#FFFFFF" fill-opacity="1.000000" fill-rule="evenodd"/>
</svg>
