<svg width="32.000000" height="32.000000" viewBox="0 0 32 32" fill="none" xmlns="http://www.w3.org/2000/svg" xmlns:xlink="http://www.w3.org/1999/xlink">
	<desc>
			Created with Pixso.
	</desc>
	<defs/>
	<path id="Subtract" d="M16 -0.999512C7.16345 -0.999512 0 6.16406 0 15.0005C0 23.8369 7.16345 31.0005 16 31.0005C24.8365 31.0005 32 23.8369 32 15.0005C32 6.16406 24.8365 -0.999512 16 -0.999512ZM18.5735 7.01904C18.1792 7.00781 17.7224 7.00293 16.8224 7.00049L15.1777 7.00146C14.5942 6.99951 14.0107 7.00537 13.4274 7.01953L13.2722 7.02441C13.093 7.03076 12.9154 7.03906 12.7026 7.04834C11.8507 7.08838 11.2708 7.22266 10.7604 7.42041C10.2268 7.62109 9.74365 7.93604 9.34436 8.34277C8.93616 8.74219 8.62048 9.22607 8.41968 9.76025C8.22205 10.271 8.08765 10.8506 8.04761 11.7026C8.03809 11.9155 8.03003 12.0923 8.02368 12.2725L8.01807 12.4277C8.00415 13.0107 7.99817 13.5942 8.00049 14.1777L8.00049 15.8228C7.99902 16.4062 8.00574 16.9897 8.02051 17.5732L8.02441 17.728C8.03149 17.918 8.03955 18.1079 8.04846 18.2979C8.0885 19.1499 8.2229 19.7305 8.42041 20.2402C8.62146 20.7744 8.9364 21.2578 9.34363 21.6577C9.74292 22.0649 10.2264 22.3794 10.7604 22.5801C11.2708 22.7778 11.8514 22.9121 12.7026 22.9521C12.8925 22.9614 13.0823 22.9697 13.2722 22.9771L13.4274 22.9819C14.011 22.9961 14.5947 23.002 15.1785 23L16.2256 23L16.8224 22.9995C17.7224 22.9976 18.1792 22.9922 18.5735 22.981L18.7288 22.9761C18.9186 22.9692 19.1085 22.9609 19.2983 22.9521C20.1494 22.9121 20.7302 22.7778 21.2397 22.5801C21.7736 22.3789 22.2573 22.0645 22.6573 21.6577C23.0646 21.2583 23.3794 20.7744 23.5797 20.2402C23.7765 19.73 23.9125 19.1499 23.9524 18.2979C23.962 18.085 23.9701 17.9082 23.9764 17.728L23.9812 17.5732C23.9955 16.9897 24.0016 16.4062 23.9996 15.8228L23.9996 14.7749L23.9989 14.1777C23.9972 13.2778 23.9924 12.8213 23.9805 12.4277L23.9756 12.2725C23.9692 12.0923 23.9613 11.9155 23.9517 11.7026C23.9116 10.8506 23.7772 10.27 23.5797 9.76025C23.3788 9.22656 23.0641 8.74268 22.6573 8.34277C22.2125 7.89893 21.7677 7.62354 21.2397 7.42041C20.7302 7.22266 20.1494 7.08838 19.2983 7.04834C19.0847 7.03906 18.908 7.03076 18.7288 7.02441L18.5735 7.01904ZM19.4935 10.0933C19.6812 9.90576 19.9354 9.80029 20.2007 9.80029C20.4658 9.80029 20.7202 9.90576 20.9077 10.0933C21.0952 10.2808 21.2006 10.5352 21.2006 10.8003C21.2006 11.0654 21.0952 11.3198 20.9077 11.5073C20.7202 11.6948 20.4658 11.8003 20.2007 11.8003C19.9354 11.8003 19.6812 11.6948 19.4935 11.5073C19.306 11.3198 19.2007 11.0654 19.2007 10.8003C19.2007 10.5352 19.306 10.2808 19.4935 10.0933ZM13.1718 12.1719C13.9219 11.4219 14.9392 11.0005 16 11.0005C17.0609 11.0005 18.0782 11.4219 18.8284 12.1719C19.5785 12.9219 19.9999 13.9395 19.9999 15.0005C19.9999 16.061 19.5785 17.0786 18.8284 17.8286C18.0782 18.5786 17.0609 19 16 19C14.9392 19 13.9219 18.5786 13.1718 17.8286C12.4216 17.0786 12.0002 16.061 12.0002 15.0005C12.0002 13.9395 12.4216 12.9219 13.1718 12.1719ZM16.0009 12.6006L16 12.6006C15.3639 12.6006 14.7538 12.8535 14.3038 13.3032C13.8538 13.7534 13.601 14.3638 13.601 15.0005C13.601 15.6367 13.8538 16.2471 14.3038 16.6973C14.7539 17.1475 15.3644 17.4004 16.0009 17.4004C16.316 17.4004 16.6281 17.3379 16.9192 17.2173C17.2103 17.0967 17.4749 16.9199 17.6978 16.6973C17.9205 16.4741 18.0973 16.2095 18.2178 15.9185C18.3384 15.627 18.4004 15.3149 18.4004 15C18.4003 14.6846 18.3381 14.3726 18.2175 14.0815C18.0968 13.7905 17.92 13.5259 17.6971 13.3032C17.4742 13.0801 17.2097 12.9033 16.9185 12.7827C16.6276 12.6626 16.3158 12.6006 16.0009 12.6006Z" clip-rule="evenodd" fill="#FFFFFF" fill-opacity="1.000000" fill-rule="evenodd"/>
</svg>
