<svg width="78.000000" height="40.000000" viewBox="0 0 78 40" fill="none" xmlns="http://www.w3.org/2000/svg" xmlns:xlink="http://www.w3.org/1999/xlink">
	<desc>
			Created with Pixso.
	</desc>
	<defs/>
	<path id="Vector" d="M55.76 10.99L57.65 7.63L58.93 5.24L53.68 5.24L51.82 8.66C51.4 9.4 50.48 9.65 49.76 9.23L33.75 0L5.63 11.24C5.18 11.42 4.66 11.18 4.49 10.72C4.32 10.26 4.53 9.75 4.97 9.56C4.98 9.56 4.98 9.55 4.98 9.55L8.14 8.19L6.56 4.25L3.25 5.67C1.96 6.22 0.95 7.24 0.41 8.56C-0.14 9.88 -0.14 11.34 0.39 12.67C0.91 13.98 1.9 15.01 3.18 15.57C3.84 15.86 4.54 16.01 5.23 16.01C5.88 16.01 6.53 15.88 7.16 15.63L33.4 5.14L44.83 11.73L42.58 15.45L42.03 15.09C41.95 11.09 39.83 9.97 38.85 9.66C37.62 9.27 36.24 9.49 34.78 10.3C33.58 10.95 32.28 12.03 30.91 13.51C28.29 16.33 25.4 20.57 22.33 26.12L19.39 22.52C19.78 22.14 20.12 21.73 20.41 21.29C21.74 19.21 21.84 16.62 20.73 13.59L16.48 15.23C17.05 16.79 17.09 17.97 16.61 18.73C16.16 19.43 14.72 20.64 10.15 20.88L8.82 20.95L5.86 27.03L10.94 27.03L11.72 25.43C13.05 25.3 14.24 25.08 15.3 24.77L17.15 27.03L27.07 27.03C28.19 25.07 29.29 23.29 30.35 21.71L33.2 23.53L31.19 27.03L36.47 27.03L39.38 21.98L33.11 17.98C33.31 17.74 33.51 17.51 33.7 17.29C35.69 15.01 36.88 14.38 37.37 14.2C37.45 14.5 37.55 15.1 37.46 16.15L37.33 17.57L44.06 21.87L48.89 13.86C51.49 14.61 54.36 13.49 55.77 10.99L55.76 10.99Z" fill="#FFFFFF" fill-opacity="1.000000" fill-rule="nonzero"/>
	<path id="Vector" d="M77.99 27.83L73.59 20.43L77.77 14.96L73.86 14.96L68.25 22.7L68.25 14.96L56.52 14.96C56.5 14.96 56.47 14.96 56.44 14.96C55.23 14.96 54.17 15.11 53.27 15.42C52.37 15.72 51.67 16.17 51.17 16.77C50.67 17.37 50.42 18.11 50.42 19C50.42 20.08 50.8 20.94 51.58 21.59C52.35 22.23 53.61 22.61 55.34 22.74L57.45 22.93C58.15 22.98 58.61 23.09 58.85 23.25C59.09 23.4 59.2 23.61 59.2 23.86C59.2 24.22 59 24.49 58.59 24.67C58.17 24.84 57.6 24.93 56.86 24.93C56.33 24.93 55.86 24.87 55.47 24.76C55.07 24.64 54.76 24.48 54.53 24.27C54.3 24.05 54.16 23.8 54.12 23.52L50.33 23.52C50.35 24.37 50.64 25.12 51.18 25.77C51.73 26.43 52.48 26.93 53.44 27.29C54.41 27.66 55.52 27.84 56.8 27.84C58.07 27.84 59.12 27.65 60.04 27.29C60.97 26.92 61.69 26.4 62.2 25.74C62.71 25.08 62.97 24.31 62.97 23.43C62.97 22.71 62.81 22.11 62.49 21.63C62.17 21.16 61.65 20.78 60.94 20.5C60.23 20.22 59.3 20.04 58.14 19.95L55.82 19.75C55.2 19.7 54.77 19.6 54.54 19.44C54.31 19.29 54.2 19.09 54.2 18.85C54.2 18.52 54.39 18.28 54.78 18.11C55.17 17.95 55.7 17.87 56.36 17.87L64.54 17.87L64.54 27.84L67.92 27.84L71.26 23.47L73.76 27.84L77.99 27.84L77.99 27.83Z" fill="#FFFFFF" fill-opacity="1.000000" fill-rule="nonzero"/>
	<path id="Vector" d="M1.83 33.24L0.18 33.24L0.18 32.44L4.4 32.44L4.4 33.24L2.75 33.24L2.75 37.53L1.83 37.53L1.83 33.24Z" fill="#FFFFFF" fill-opacity="1.000000" fill-rule="nonzero"/>
	<path id="Vector" d="M8.17 35.88L5.19 35.88C5.25 36.17 5.38 36.39 5.6 36.56C5.82 36.73 6.09 36.81 6.42 36.81C6.84 36.81 7.18 36.67 7.45 36.39L7.93 36.95C7.76 37.16 7.54 37.32 7.28 37.42C7.02 37.53 6.73 37.58 6.4 37.58C5.98 37.58 5.62 37.5 5.3 37.33C4.98 37.16 4.74 36.92 4.57 36.62C4.39 36.32 4.31 35.97 4.31 35.59C4.31 35.21 4.39 34.87 4.56 34.57C4.73 34.26 4.96 34.03 5.26 33.86C5.55 33.69 5.89 33.6 6.26 33.6C6.64 33.6 6.96 33.69 7.25 33.85C7.55 34.02 7.77 34.26 7.94 34.56C8.1 34.86 8.18 35.22 8.18 35.61C8.18 35.68 8.18 35.77 8.17 35.88L8.17 35.88ZM5.54 34.59C5.35 34.76 5.23 34.99 5.19 35.28L7.34 35.28C7.3 35 7.19 34.77 6.99 34.6C6.8 34.42 6.56 34.33 6.27 34.33C5.98 34.33 5.74 34.42 5.55 34.59L5.54 34.59Z" fill="#FFFFFF" fill-opacity="1.000000" fill-rule="nonzero"/>
	<path id="Vector" d="M9.72 37.33C9.41 37.16 9.16 36.92 8.99 36.62C8.81 36.31 8.72 35.97 8.72 35.59C8.72 35.21 8.81 34.86 8.99 34.56C9.16 34.26 9.4 34.03 9.71 33.86C10.02 33.69 10.38 33.6 10.78 33.6C11.15 33.6 11.48 33.68 11.76 33.83C12.04 33.99 12.25 34.21 12.4 34.5L11.71 34.91C11.6 34.73 11.47 34.6 11.3 34.51C11.14 34.42 10.96 34.37 10.77 34.37C10.44 34.37 10.16 34.48 9.94 34.7C9.73 34.92 9.62 35.22 9.62 35.59C9.62 35.96 9.73 36.25 9.94 36.47C10.16 36.69 10.43 36.8 10.77 36.8C10.96 36.8 11.14 36.76 11.3 36.67C11.47 36.58 11.6 36.44 11.71 36.26L12.4 36.67C12.25 36.96 12.03 37.19 11.75 37.34C11.47 37.5 11.14 37.58 10.78 37.58C10.38 37.58 10.03 37.5 9.72 37.33L9.72 37.33Z" fill="#FFFFFF" fill-opacity="1.000000" fill-rule="nonzero"/>
	<path id="Vector" d="M16.43 34.03C16.72 34.32 16.86 34.74 16.86 35.3L16.86 37.53L15.98 37.53L15.98 35.42C15.98 35.08 15.9 34.82 15.74 34.65C15.58 34.48 15.36 34.39 15.07 34.39C14.75 34.39 14.49 34.49 14.3 34.7C14.11 34.9 14.02 35.19 14.02 35.57L14.02 37.53L13.13 37.53L13.13 32.13L14.02 32.13L14.02 34.1C14.16 33.94 14.34 33.81 14.56 33.73C14.78 33.64 15.02 33.6 15.28 33.6C15.76 33.6 16.14 33.75 16.43 34.03L16.43 34.03Z" fill="#FFFFFF" fill-opacity="1.000000" fill-rule="nonzero"/>
	<path id="Vector" d="M21.3 34.03C21.59 34.32 21.73 34.74 21.73 35.31L21.73 37.53L20.84 37.53L20.84 35.42C20.84 35.08 20.76 34.82 20.61 34.65C20.45 34.48 20.23 34.39 19.94 34.39C19.61 34.39 19.36 34.5 19.17 34.7C18.98 34.9 18.88 35.19 18.88 35.57L18.88 37.53L18 37.53L18 33.65L18.84 33.65L18.84 34.15C18.99 33.97 19.17 33.83 19.39 33.74C19.62 33.65 19.87 33.6 20.15 33.6C20.63 33.6 21.01 33.75 21.3 34.03L21.3 34.03Z" fill="#FFFFFF" fill-opacity="1.000000" fill-rule="nonzero"/>
	<path id="Vector" d="M23.56 37.33C23.25 37.16 23.01 36.92 22.84 36.62C22.67 36.31 22.58 35.97 22.58 35.59C22.58 35.21 22.67 34.86 22.84 34.56C23.01 34.26 23.25 34.03 23.56 33.86C23.87 33.69 24.22 33.6 24.6 33.6C24.98 33.6 25.33 33.69 25.64 33.86C25.95 34.03 26.19 34.26 26.36 34.56C26.54 34.86 26.62 35.21 26.62 35.59C26.62 35.97 26.54 36.31 26.36 36.62C26.19 36.92 25.95 37.16 25.64 37.33C25.34 37.5 24.99 37.58 24.6 37.58C24.21 37.58 23.87 37.5 23.56 37.33ZM25.41 36.47C25.62 36.25 25.73 35.95 25.73 35.59C25.73 35.23 25.62 34.93 25.41 34.71C25.2 34.49 24.93 34.37 24.6 34.37C24.27 34.37 24 34.49 23.79 34.71C23.58 34.93 23.48 35.23 23.48 35.59C23.48 35.95 23.58 36.25 23.79 36.47C24 36.69 24.27 36.8 24.6 36.8C24.93 36.8 25.19 36.69 25.41 36.47Z" fill="#FFFFFF" fill-opacity="1.000000" fill-rule="nonzero"/>
	<path id="Vector" d="M27.48 32.13L28.37 32.13L28.37 37.53L27.48 37.53L27.48 32.13Z" fill="#FFFFFF" fill-opacity="1.000000" fill-rule="nonzero"/>
	<path id="Vector" d="M30.2 37.33C29.89 37.16 29.65 36.92 29.48 36.62C29.3 36.31 29.22 35.97 29.22 35.59C29.22 35.21 29.3 34.86 29.48 34.56C29.65 34.26 29.89 34.03 30.2 33.86C30.5 33.69 30.85 33.6 31.23 33.6C31.62 33.6 31.97 33.69 32.28 33.86C32.59 34.03 32.83 34.26 33 34.56C33.17 34.86 33.26 35.21 33.26 35.59C33.26 35.97 33.17 36.31 33 36.62C32.83 36.92 32.59 37.16 32.28 37.33C31.97 37.5 31.62 37.58 31.23 37.58C30.85 37.58 30.5 37.5 30.2 37.33ZM32.04 36.47C32.26 36.25 32.36 35.95 32.36 35.59C32.36 35.23 32.26 34.93 32.04 34.71C31.83 34.49 31.56 34.37 31.23 34.37C30.91 34.37 30.64 34.49 30.43 34.71C30.22 34.93 30.11 35.23 30.11 35.59C30.11 35.95 30.22 36.25 30.43 36.47C30.64 36.69 30.91 36.8 31.23 36.8C31.56 36.8 31.83 36.69 32.04 36.47Z" fill="#FFFFFF" fill-opacity="1.000000" fill-rule="nonzero"/>
	<path id="Vector" d="M37.88 33.65L37.88 36.94C37.88 38.31 37.19 39 35.83 39C35.46 39 35.12 38.95 34.79 38.85C34.47 38.76 34.2 38.62 33.98 38.44L34.38 37.76C34.55 37.9 34.76 38.01 35.01 38.1C35.26 38.18 35.52 38.22 35.78 38.22C36.2 38.22 36.5 38.13 36.7 37.93C36.89 37.74 36.99 37.44 36.99 37.04L36.99 36.84C36.84 37.01 36.65 37.14 36.43 37.23C36.22 37.32 35.98 37.36 35.71 37.36C35.35 37.36 35.03 37.28 34.74 37.12C34.45 36.97 34.22 36.74 34.05 36.46C33.88 36.17 33.8 35.84 33.8 35.48C33.8 35.11 33.88 34.78 34.05 34.5C34.22 34.21 34.45 33.99 34.74 33.84C35.03 33.68 35.35 33.6 35.71 33.6C35.99 33.6 36.24 33.65 36.46 33.74C36.69 33.83 36.88 33.97 37.03 34.16L37.03 33.65L37.87 33.65L37.88 33.65ZM36.68 36.28C36.89 36.07 37 35.8 37 35.47C37 35.14 36.89 34.88 36.68 34.68C36.46 34.48 36.19 34.38 35.85 34.38C35.51 34.38 35.23 34.48 35.02 34.68C34.8 34.88 34.69 35.15 34.69 35.47C34.69 35.8 34.8 36.07 35.02 36.28C35.23 36.48 35.51 36.59 35.85 36.59C36.19 36.59 36.46 36.48 36.68 36.28Z" fill="#FFFFFF" fill-opacity="1.000000" fill-rule="nonzero"/>
	<path id="Vector" d="M42.59 33.65L40.82 37.85C40.65 38.27 40.45 38.56 40.21 38.74C39.98 38.91 39.69 39 39.35 39C39.17 39 38.98 38.96 38.79 38.9C38.61 38.84 38.46 38.75 38.34 38.64L38.69 37.97C38.78 38.05 38.88 38.12 38.99 38.17C39.11 38.22 39.23 38.24 39.35 38.24C39.5 38.24 39.63 38.2 39.73 38.12C39.83 38.03 39.93 37.9 40.01 37.7L40.08 37.55L38.42 33.65L39.35 33.65L40.54 36.52L41.74 33.65L42.59 33.65L42.59 33.65Z" fill="#FFFFFF" fill-opacity="1.000000" fill-rule="nonzero"/>
	<path id="Vector" d="M48.92 37.61L48.3 36.99C47.83 37.4 47.28 37.6 46.63 37.6C46.28 37.6 45.97 37.55 45.7 37.43C45.42 37.31 45.21 37.15 45.05 36.95C44.89 36.74 44.82 36.51 44.82 36.25C44.82 35.93 44.91 35.65 45.09 35.41C45.26 35.17 45.56 34.93 45.97 34.7C45.77 34.5 45.63 34.31 45.54 34.13C45.46 33.95 45.41 33.77 45.41 33.58C45.41 33.22 45.54 32.93 45.81 32.71C46.07 32.49 46.42 32.38 46.85 32.38C47.26 32.38 47.58 32.48 47.82 32.68C48.06 32.88 48.18 33.16 48.18 33.5C48.18 33.76 48.11 34 47.95 34.2C47.79 34.4 47.53 34.61 47.17 34.82L48.24 35.87C48.36 35.63 48.45 35.34 48.52 35.01L49.24 35.25C49.14 35.7 48.99 36.09 48.79 36.41L49.41 37.02L48.92 37.61L48.92 37.61ZM47.77 36.48L46.46 35.19C46.17 35.35 45.97 35.5 45.86 35.65C45.74 35.8 45.68 35.97 45.68 36.15C45.68 36.37 45.77 36.54 45.96 36.67C46.14 36.8 46.39 36.86 46.69 36.86C47.1 36.86 47.46 36.74 47.77 36.48ZM46.39 33.18C46.28 33.28 46.22 33.41 46.22 33.57C46.22 33.68 46.25 33.79 46.32 33.9C46.38 34 46.5 34.15 46.67 34.32C46.95 34.16 47.15 34.03 47.26 33.91C47.37 33.79 47.43 33.66 47.43 33.52C47.43 33.36 47.38 33.25 47.28 33.16C47.18 33.07 47.04 33.03 46.85 33.03C46.66 33.03 46.51 33.08 46.39 33.18Z" fill="#FFFFFF" fill-opacity="1.000000" fill-rule="nonzero"/>
	<path id="Vector" d="M57.42 38.04C57.25 38.24 57.06 38.39 56.84 38.49C56.62 38.6 56.38 38.65 56.12 38.65C55.78 38.65 55.46 38.57 55.18 38.41C54.89 38.25 54.57 37.98 54.21 37.59C53.75 37.55 53.33 37.42 52.97 37.18C52.6 36.95 52.32 36.64 52.12 36.26C51.91 35.87 51.81 35.45 51.81 34.99C51.81 34.49 51.93 34.05 52.16 33.64C52.39 33.25 52.71 32.93 53.12 32.71C53.52 32.48 53.98 32.37 54.49 32.37C54.99 32.37 55.45 32.48 55.86 32.71C56.27 32.93 56.59 33.24 56.82 33.64C57.05 34.04 57.17 34.49 57.17 34.99C57.17 35.39 57.09 35.76 56.93 36.1C56.77 36.45 56.56 36.74 56.28 36.98C56 37.22 55.67 37.39 55.31 37.5C55.44 37.65 55.58 37.76 55.71 37.83C55.84 37.89 55.99 37.93 56.14 37.93C56.46 37.93 56.75 37.79 56.99 37.52L57.42 38.04L57.42 38.04ZM52.97 35.91C53.12 36.18 53.33 36.39 53.59 36.55C53.86 36.7 54.16 36.78 54.49 36.78C54.82 36.78 55.12 36.7 55.38 36.55C55.65 36.39 55.86 36.18 56.01 35.91C56.16 35.63 56.24 35.33 56.24 34.99C56.24 34.65 56.16 34.34 56.01 34.07C55.86 33.79 55.65 33.58 55.38 33.43C55.12 33.27 54.82 33.2 54.49 33.2C54.16 33.2 53.86 33.27 53.59 33.43C53.33 33.58 53.12 33.79 52.97 34.07C52.82 34.34 52.74 34.65 52.74 34.99C52.74 35.33 52.82 35.63 52.97 35.91Z" fill="#FFFFFF" fill-opacity="1.000000" fill-rule="nonzero"/>
	<path id="Vector" d="M61.74 33.65L61.74 37.53L60.89 37.53L60.89 37.04C60.75 37.21 60.57 37.35 60.36 37.44C60.15 37.54 59.92 37.58 59.67 37.58C59.16 37.58 58.76 37.44 58.47 37.15C58.18 36.86 58.04 36.43 58.04 35.87L58.04 33.65L58.92 33.65L58.92 35.74C58.92 36.09 59 36.35 59.15 36.52C59.31 36.7 59.53 36.78 59.81 36.78C60.13 36.78 60.38 36.68 60.57 36.48C60.75 36.28 60.85 35.99 60.85 35.61L60.85 33.65L61.74 33.65L61.74 33.65Z" fill="#FFFFFF" fill-opacity="1.000000" fill-rule="nonzero"/>
	<path id="Vector" d="M65.63 34.01C65.93 34.29 66.08 34.7 66.08 35.25L66.08 37.53L65.24 37.53L65.24 37.06C65.13 37.23 64.97 37.36 64.77 37.45C64.57 37.54 64.33 37.58 64.04 37.58C63.76 37.58 63.51 37.54 63.3 37.43C63.09 37.34 62.92 37.2 62.81 37.02C62.69 36.84 62.63 36.64 62.63 36.42C62.63 36.07 62.76 35.79 63.01 35.58C63.26 35.37 63.66 35.26 64.21 35.26L65.19 35.26L65.19 35.2C65.19 34.93 65.11 34.72 64.95 34.58C64.79 34.43 64.56 34.36 64.24 34.36C64.03 34.36 63.82 34.39 63.61 34.46C63.41 34.53 63.23 34.62 63.09 34.74L62.74 34.08C62.94 33.93 63.18 33.81 63.46 33.73C63.74 33.64 64.04 33.6 64.35 33.6C64.91 33.6 65.33 33.74 65.63 34.01L65.63 34.01ZM64.82 36.76C65 36.66 65.12 36.51 65.19 36.32L65.19 35.86L64.27 35.86C63.76 35.86 63.51 36.04 63.51 36.38C63.51 36.54 63.57 36.68 63.7 36.77C63.83 36.87 64 36.92 64.23 36.92C64.46 36.92 64.65 36.87 64.82 36.76Z" fill="#FFFFFF" fill-opacity="1.000000" fill-rule="nonzero"/>
	<path id="Vector" d="M67.21 32.13L68.1 32.13L68.1 37.53L67.21 37.53L67.21 32.13Z" fill="#FFFFFF" fill-opacity="1.000000" fill-rule="nonzero"/>
	<path id="Vector" d="M69.31 32.85C69.2 32.75 69.15 32.62 69.15 32.46C69.15 32.3 69.2 32.18 69.31 32.07C69.42 31.96 69.55 31.91 69.71 31.91C69.88 31.91 70.01 31.96 70.12 32.06C70.23 32.16 70.28 32.29 70.28 32.44C70.28 32.6 70.23 32.73 70.12 32.84C70.02 32.95 69.88 33.01 69.71 33.01C69.55 33.01 69.42 32.96 69.31 32.85L69.31 32.85ZM69.27 33.65L70.15 33.65L70.15 37.53L69.27 37.53L69.27 33.65Z" fill="#FFFFFF" fill-opacity="1.000000" fill-rule="nonzero"/>
	<path id="Vector" d="M73.6 37.32C73.49 37.41 73.37 37.47 73.22 37.52C73.07 37.56 72.91 37.58 72.75 37.58C72.33 37.58 72.01 37.47 71.78 37.25C71.55 37.02 71.44 36.7 71.44 36.27L71.44 34.4L70.82 34.4L70.82 33.68L71.44 33.68L71.44 32.79L72.33 32.79L72.33 33.68L73.34 33.68L73.34 34.4L72.33 34.4L72.33 36.25C72.33 36.44 72.37 36.58 72.46 36.68C72.55 36.78 72.68 36.83 72.85 36.83C73.05 36.83 73.22 36.78 73.35 36.67L73.6 37.32L73.6 37.32Z" fill="#FFFFFF" fill-opacity="1.000000" fill-rule="nonzero"/>
	<path id="Vector" d="M77.81 33.65L76.04 37.85C75.87 38.27 75.67 38.56 75.43 38.74C75.2 38.91 74.91 39 74.57 39C74.38 39 74.2 38.96 74.01 38.9C73.83 38.84 73.68 38.75 73.56 38.64L73.91 37.97C74 38.05 74.1 38.12 74.21 38.17C74.33 38.22 74.45 38.24 74.56 38.24C74.72 38.24 74.85 38.2 74.95 38.12C75.05 38.03 75.15 37.9 75.23 37.7L75.3 37.55L73.64 33.65L74.56 33.65L75.76 36.52L76.96 33.65L77.81 33.65L77.81 33.65Z" fill="#FFFFFF" fill-opacity="1.000000" fill-rule="nonzero"/>
</svg>
