<svg width="32.000000" height="32.000000" viewBox="0 0 32 32" fill="none" xmlns="http://www.w3.org/2000/svg" xmlns:xlink="http://www.w3.org/1999/xlink">
	<desc>
			Created with Pixso.
	</desc>
	<defs/>
	<path id="Subtract" d="M16 -0.999512C7.16345 -0.999512 0 6.16406 0 15.0005C0 23.8369 7.16345 31.0005 16 31.0005C24.8365 31.0005 32 23.8369 32 15.0005C32 6.16406 24.8365 -0.999512 16 -0.999512ZM8 14.6807C8 11.0601 8 9.25 9.12476 8.125C10.2494 7.00049 12.0596 7.00049 15.6801 7.00049L16.3199 7.00049C19.9404 7.00049 21.7506 7.00049 22.8752 8.125C24 9.25 24 11.0601 24 14.6807L24 15.3203C24 18.9409 24 20.751 22.8752 21.876C21.7506 23.0005 19.9404 23.0005 16.3199 23.0005L15.6801 23.0005C12.0596 23.0005 10.2494 23.0005 9.12476 21.876C8 20.751 8 18.9409 8 15.3203L8 14.6807ZM16.5132 18.5269C12.8665 18.5269 10.7865 16.0269 10.6998 11.8672L12.5265 11.8672C12.5865 14.9204 13.9331 16.2134 14.9998 16.4805L14.9998 11.8672L16.7198 11.8672L16.7198 14.5005C17.7732 14.3867 18.8798 13.187 19.2531 11.8672L20.9731 11.8672C20.6864 13.4937 19.4865 14.6938 18.6331 15.187C19.4865 15.5869 20.8531 16.6338 21.3732 18.5269L19.4797 18.5269C19.0731 17.2603 18.0598 16.2803 16.7198 16.147L16.7198 18.5269L16.5132 18.5269Z" clip-rule="evenodd" fill="#FFFFFF" fill-opacity="1.000000" fill-rule="evenodd"/>
</svg>
