<svg width="32.000000" height="32.000000" viewBox="0 0 32 32" fill="none" xmlns="http://www.w3.org/2000/svg" xmlns:xlink="http://www.w3.org/1999/xlink">
	<desc>
			Created with Pixso.
	</desc>
	<defs>
		<clipPath id="clip74_1354">
			<rect id="logos:youtube-icon" width="22.000000" height="16.000000" transform="translate(5.000000 7.000488)" fill="white" fill-opacity="0"/>
		</clipPath>
	</defs>
	<path id="Subtract" d="M16 -0.999512C7.16345 -0.999512 0 6.16406 0 15.0005C0 23.8369 7.16345 31.0005 16 31.0005C24.8365 31.0005 32 23.8369 32 15.0005C32 6.16406 24.8365 -0.999512 16 -0.999512ZM24.5808 9.07227C24.8782 9.38281 25.0924 9.76904 25.2023 10.1929C25.8348 12.8506 25.6887 17.0479 25.2146 19.8081C25.1047 20.2319 24.8904 20.6182 24.593 20.9287C24.2957 21.2393 23.9255 21.4629 23.5195 21.5776C22.0333 22.0005 16.0518 22.0005 16.0518 22.0005C16.0518 22.0005 10.0699 22.0005 8.58374 21.5776C8.17773 21.4629 7.80774 21.2393 7.51025 20.9287C7.21289 20.6182 6.99866 20.2319 6.88879 19.8081C6.25244 17.1621 6.42688 12.9619 6.87646 10.2056C6.98633 9.78174 7.20056 9.39551 7.49792 9.08496C7.79529 8.7749 8.16541 8.55127 8.57141 8.43652C10.0576 8.01318 16.0396 8.00049 16.0396 8.00049C16.0396 8.00049 22.0211 8.00049 23.5073 8.42334C23.9133 8.53809 24.2834 8.76172 24.5808 9.07227ZM13.8018 18.3838L19.5018 14.9688L13.8018 11.5537L13.8018 18.3838Z" clip-rule="evenodd" fill="#FFFFFF" fill-opacity="1.000000" fill-rule="evenodd"/>
</svg>
